<?xml version="1.0" encoding="utf-8"?>
<!-- Generator: Adobe Illustrator 24.2.0, SVG Export Plug-In . SVG Version: 6.00 Build 0)  -->
<svg version="1.1" id="Layer_1" xmlns="http://www.w3.org/2000/svg" xmlns:xlink="http://www.w3.org/1999/xlink" x="0px" y="0px"
	 viewBox="0 0 1920 1080" style="enable-background:new 0 0 1920 1080;" xml:space="preserve">
<g>
	<path d="M991.81,539.62c-10.63-9.11-21.05-18.05-31.47-26.98c-21.83-18.71-43.64-37.43-65.49-56.1c-4.58-3.91-7.25-8.63-6.54-14.73
		c0.72-6.18,4.01-10.7,9.84-13.09c5.99-2.46,11.57-1.43,16.47,2.67c8.14,6.83,16.15,13.8,24.22,20.71
		c28.86,24.71,57.7,49.45,86.6,74.12c5.38,4.59,8.5,10.11,6.42,17.12c-0.97,3.28-3.07,6.73-5.65,8.95
		c-37.29,32.17-74.73,64.15-112.17,96.14c-7.06,6.03-17.04,5.22-22.79-1.67c-5.89-7.06-4.88-16.67,2.5-22.99
		c31.7-27.17,63.41-54.32,95.11-81.48C989.79,541.5,990.67,540.65,991.81,539.62z"/>
</g>
</svg>
